PathFileType  4	(X/Y/Z) C:\Users\antoi\Documents\MyRepositories\mobilecap\ResultsAnalysis
DataRate	CameraRate	NumFrames	NumMarkers	Units	OrigDataRate	OrigDataStartFrame	OrigNumFrames
100.0	100.0	5	51	mm	100.0	67	132
Frame#	Time	r_knee			r_shank_antsup			r_ankle			r_calc			r_5meta			r_toe			L_knee			L_shank_antsup			L_ankle			L_calc			L_5meta			L_toe			r_sh2			r_sh3			r_sh4			L_sh2			L_sh3			r_thigh1			r_thigh2			r_thigh3			r_thigh4			r_thigh5			L_thigh1			L_thigh2			L_thigh3			L_thigh4			r.ASIS			r.PSIS			L.ASIS			L.PSIS			C7			R_Shoulder			L_Shoulder			R_Sternum			L_Sternum			R_humerus			R_elbow_med			R_elbow_lat			R_forearm			R_wrist_radius			R_wrist_ulna			L_humerus			L_elbow_med			L_elbow_lat			L_forearm			L_wrist_radius			L_wrist_ulna			R_HJC			L_HJC			R_HJC_reg			L_HJC_reg			
		X1	Y1	Z1	X2	Y2	Z2	X3	Y3	Z3	X4	Y4	Z4	X5	Y5	Z5	X6	Y6	Z6	X7	Y7	Z7	X8	Y8	Z8	X9	Y9	Z9	X10	Y10	Z10	X11	Y11	Z11	X12	Y12	Z12	X13	Y13	Z13	X14	Y14	Z14	X15	Y15	Z15	X16	Y16	Z16	X17	Y17	Z17	X18	Y18	Z18	X19	Y19	Z19	X20	Y20	Z20	X21	Y21	Z21	X22	Y22	Z22	X23	Y23	Z23	X24	Y24	Z24	X25	Y25	Z25	X26	Y26	Z26	X27	Y27	Z27	X28	Y28	Z28	X29	Y29	Z29	X30	Y30	Z30	X31	Y31	Z31	X32	Y32	Z32	X33	Y33	Z33	X34	Y34	Z34	X35	Y35	Z35	X36	Y36	Z36	X37	Y37	Z37	X38	Y38	Z38	X39	Y39	Z39	X40	Y40	Z40	X41	Y41	Z41	X42	Y42	Z42	X43	Y43	Z43	X44	Y44	Z44	X45	Y45	Z45	X46	Y46	Z46	X47	Y47	Z47	X48	Y48	Z48	X49	Y49	Z49	X50	Y50	Z50	X51	Y51	Z51	

67	0.66000000	513.90956	447.67534	-115.50811	473.16000	327.67916	-134.58054	244.89317	169.42242	-185.70906	192.20074	172.47274	-244.36373	293.47066	45.85115	-165.32037	337.61729	45.94763	-205.93680	826.58834	467.50845	-376.27801	880.01749	379.78810	-318.68963	859.68653	82.16765	-334.36187	809.60575	49.78280	-283.35626	981.53412	37.63396	-329.75917	1014.20127	63.48309	-275.49184	397.22941	250.86338	-159.04234	422.61937	365.55545	-92.10299	336.23657	301.24634	-128.10776	840.85887	386.22500	-397.63657	856.29895	266.42770	-400.45036	690.50498	716.57433	-92.11131	668.41611	607.74294	-94.18365	609.83265	594.38661	-63.99975	581.80812	734.25005	-63.14537	558.48745	620.74717	-68.86619	791.74690	763.15263	-402.15525	846.58018	639.32276	-384.31902	697.42800	722.90785	-446.77162	750.86976	594.22030	-420.10527	745.12311	883.35091	-111.84610	569.59434	940.26759	-196.61260	770.54348	914.06295	-355.65193	574.41029	946.89091	-312.94710	579.75486	1393.97150	-233.03497	639.59874	1360.21377	-83.09896	634.21732	1368.79245	-395.07989	710.65676	1348.25186	-218.38100	711.09856	1346.74841	-263.05942	674.26655	1236.49310	-19.67465	634.89311	1026.43702	-62.09584	661.60433	1041.73890	7.02000	757.24479	956.27705	16.25603	829.00159	881.61345	8.91360	801.61600	859.42153	26.22279	626.26120	1218.32677	-461.86652	545.92505	1041.44687	-384.47080	535.45280	1053.63785	-457.50603	544.63475	963.37467	-499.25654	536.49185	831.48587	-507.83437	505.05949	837.90023	-513.82405	657.15105	818.06053	-157.06357	682.07497	835.09742	-343.95456	676.64929	827.95457	-152.11612	683.38949	837.21266	-314.75493	
68	0.67000000	537.58143	444.67305	-113.61463	493.28247	326.14917	-132.49890	259.41259	177.99189	-183.76482	208.13866	186.03409	-242.52060	297.87668	50.48131	-164.95263	341.41869	47.28334	-205.74168	837.54879	469.50126	-375.69068	887.59278	379.76826	-318.04274	860.54359	82.53036	-334.44008	809.96524	49.93770	-283.52343	981.77042	37.24202	-330.28836	1014.50054	62.24486	-275.54656	414.26582	252.36469	-157.21130	444.14251	365.98533	-90.15268	355.27038	304.99351	-125.90361	850.10958	387.28830	-397.59333	862.92225	267.24538	-400.39575	707.75389	717.39463	-93.74237	688.17804	608.01126	-94.48123	629.99830	593.61130	-63.67793	598.75555	732.79298	-64.19006	578.07461	618.85991	-68.71620	805.04760	766.13368	-402.31996	859.48082	642.19392	-383.83870	711.31495	726.04714	-448.01724	763.64469	597.00709	-420.12184	759.91254	884.61383	-113.38320	583.90219	941.59635	-194.98914	783.80293	918.00481	-356.69338	587.67275	949.66041	-311.39609	593.11035	1396.26488	-232.99115	653.38107	1362.72322	-83.26875	647.13587	1370.73582	-395.14954	723.90810	1350.39506	-218.67994	724.29342	1348.86119	-263.29753	686.48434	1238.43171	-19.73139	644.53676	1029.40249	-64.20340	670.67051	1043.56330	5.44857	763.66265	955.12283	15.32633	832.83609	878.14123	8.37256	804.47579	856.82297	25.29590	641.16079	1220.07892	-461.76699	562.98828	1042.08079	-384.94247	552.56238	1054.16436	-458.00301	563.28056	964.15494	-499.76287	557.42699	832.24935	-508.70174	525.66132	838.18237	-514.64023	672.24632	819.33466	-158.05694	695.36147	838.65698	-344.97390	691.75421	829.31699	-153.64085	697.02535	840.55855	-316.02764	
69	0.68000000	562.49576	441.49530	-111.51904	514.78384	324.51040	-130.40945	275.88270	186.85072	-181.72036	226.44588	200.15206	-240.47193	303.35154	56.34954	-164.56993	346.01824	49.21001	-205.39956	847.27261	470.89934	-375.22483	894.26848	379.44151	-317.41668	861.17742	82.82847	-334.37049	810.19735	49.97536	-283.61467	981.88654	37.13432	-330.64945	1014.64164	61.35573	-275.44439	432.83065	253.94659	-155.44411	467.10616	366.13431	-87.99956	375.85439	308.60974	-123.56817	858.29441	387.92541	-397.41289	868.67312	267.68818	-400.09581	725.28082	718.37846	-95.31531	708.48935	608.45658	-94.55961	650.82446	592.84257	-63.07408	615.87601	731.16874	-65.03816	598.26680	616.84249	-68.30756	818.02903	768.39807	-402.60884	871.55662	644.11138	-383.67629	724.55193	728.90187	-449.03229	775.45303	599.25347	-420.26164	774.40728	886.21060	-115.03654	597.92904	943.14161	-193.56656	796.94651	921.74644	-357.69075	600.91440	952.44567	-310.07068	606.24564	1398.60008	-232.91768	666.99285	1365.46064	-83.44230	659.98929	1372.93427	-395.07101	736.95927	1352.66532	-218.87704	737.32727	1351.14722	-263.42922	698.68422	1240.70688	-19.78904	653.86908	1032.89091	-66.20228	679.52970	1045.81606	3.99439	769.60685	954.31593	14.44785	836.00685	874.95425	7.83274	806.75808	854.51766	24.38960	656.11264	1222.22577	-461.63029	580.08541	1043.08624	-385.43489	569.86242	1055.01484	-458.55066	582.37672	965.30872	-500.29622	579.06055	833.39158	-509.54374	546.99488	838.80268	-515.47114	687.03001	820.87940	-158.99559	708.48457	842.11410	-345.92975	706.47631	830.96892	-155.33573	710.63690	843.89397	-317.32246	
70	0.69000000	588.34438	438.31216	-109.32724	537.52847	322.85387	-128.38832	294.20883	195.76319	-179.58174	246.95727	214.38425	-238.20802	310.27710	63.32381	-164.09604	351.70018	51.79258	-204.87723	855.62176	471.66274	-374.96328	900.13930	378.83167	-316.90733	861.70110	83.06792	-334.14626	810.36257	49.96102	-283.60268	981.96076	37.14574	-330.83694	1014.73150	60.62812	-275.19602	452.84465	255.62125	-153.74566	491.32064	366.08164	-85.72042	397.83723	312.09260	-121.15101	865.32390	388.11425	-397.15605	873.53502	267.77768	-399.62199	742.93032	719.51051	-96.64736	729.16456	609.10117	-94.28909	672.08452	592.13301	-62.14910	633.04177	729.42160	-65.63044	618.89077	614.76939	-67.63034	830.61700	769.83356	-402.98862	882.62537	644.91094	-383.92777	736.97855	731.48429	-449.75798	786.07890	600.98877	-420.60624	788.54606	888.02382	-116.63080	611.65935	944.82443	-192.47977	810.01699	925.01719	-358.53171	614.17465	955.17283	-309.10547	619.14388	1400.85059	-232.82636	680.31883	1368.27567	-83.60611	672.82999	1375.29138	-394.86690	749.80464	1354.98951	-218.94109	750.20138	1353.53387	-263.43275	710.79441	1243.16617	-19.85557	662.89299	1036.68128	-67.97805	688.23015	1048.35601	2.71625	775.16085	953.79325	13.65356	838.64547	872.04556	7.31378	808.59843	852.51165	23.55174	671.11740	1224.65808	-461.48519	597.12772	1044.38630	-385.97022	587.27514	1056.11926	-459.17086	601.83706	966.75346	-500.86082	601.29708	834.84368	-510.32743	568.97225	839.69694	-516.29387	701.37445	822.61039	-159.81453	721.48454	845.26202	-346.75820	720.75261	832.70908	-157.07714	724.23862	847.02489	-318.54984	
71	0.70000000	614.80515	435.31926	-107.13193	561.37618	321.29590	-126.49124	314.20367	204.48795	-177.36823	269.31525	228.20967	-235.75653	319.13112	71.12756	-163.42871	358.91390	55.08833	-204.15741	862.63720	471.86832	-374.94146	905.32741	378.01776	-316.61066	862.17292	83.26915	-333.78985	810.48668	49.93767	-283.49292	982.02926	37.18541	-330.88968	1014.81476	59.97794	-274.85802	474.18672	257.39806	-152.09819	516.58473	365.92899	-83.38079	421.06557	315.44018	-118.68511	871.20125	387.91277	-396.92112	877.51425	267.57783	-399.08991	760.51354	720.79886	-97.57401	750.00130	609.98529	-93.58014	693.52548	591.56185	-60.89295	650.12758	727.62998	-65.93431	639.75200	612.74132	-66.69556	842.72634	770.51626	-403.41733	892.64356	644.69184	-384.57680	748.53018	733.83971	-450.20632	795.48665	602.36429	-421.18814	802.27457	889.92700	-117.98930	625.08107	946.55537	-191.81201	823.02953	927.65307	-359.12264	627.43687	957.78859	-308.57553	631.81526	1402.93630	-232.73698	693.27136	1371.03196	-83.73693	685.71855	1377.72218	-394.57565	762.45348	1357.30584	-218.84807	762.92868	1355.95143	-263.28876	722.71379	1245.65849	-19.91827	671.59450	1040.53873	-69.41953	696.80708	1051.02933	1.65966	780.41299	953.47729	12.96578	840.88545	869.39448	6.83214	810.12148	850.79538	22.82107	686.18461	1227.25386	-461.35435	614.04777	1045.88702	-386.57852	604.73946	1057.39290	-459.88933	621.58549	968.39374	-501.46414	624.04240	836.52471	-511.03524	591.51292	840.77438	-517.09915	715.18171	824.43296	-160.46425	734.38720	847.96565	-347.41066	734.55832	834.34260	-158.71982	737.80031	849.81130	-319.61857	
